<?xml version="1.0" encoding="utf-8"?>
<!-- Generator: Adobe Illustrator 16.0.3, SVG Export Plug-In . SVG Version: 6.00 Build 0)  -->
<!DOCTYPE svg PUBLIC "-//W3C//DTD SVG 1.1//EN" "http://www.w3.org/Graphics/SVG/1.1/DTD/svg11.dtd">
<svg version="1.1" id="objects" xmlns="http://www.w3.org/2000/svg" xmlns:xlink="http://www.w3.org/1999/xlink" x="0px" y="0px"
	 width="194.24px" height="231.919px" viewBox="0 0 194.24 231.919" enable-background="new 0 0 194.24 231.919"
	 xml:space="preserve">
<g>
	<path fill-rule="evenodd" clip-rule="evenodd" fill="#FFDECC" d="M77.705,143.78c-42.928,18.818-55.806,28.85-60.896,33.355
		C8.965,184.076,4.626,209.951,0,231.919h97.12h97.12c-4.626-21.968-8.966-47.843-16.81-54.783
		c-5.088-4.506-17.493-14.279-60.423-33.101L77.705,143.78z"/>
	<path fill-rule="evenodd" clip-rule="evenodd" fill="#333333" d="M77.704,143.78c-42.927,18.818-55.804,28.85-60.895,33.355
		C8.965,184.076,4.626,209.951,0,231.919h97.12h97.12c-4.626-21.968-8.966-47.843-16.81-54.783
		c-5.088-4.506-17.493-14.279-60.423-33.101L77.704,143.78z"/>
	<path fill-rule="evenodd" clip-rule="evenodd" fill="#F6C5A0" d="M76.278,106.264v31.858v15.727
		c11.463,13.554,30.221,14.041,41.686,0v-15.727v-31.858C117.964,80.57,76.278,80.57,76.278,106.264z"/>
	
		<ellipse transform="matrix(-0.3127 -0.9498 0.9498 -0.3127 -8.0372 169.8758)" fill-rule="evenodd" clip-rule="evenodd" fill="#F6C5A0" cx="57.441" cy="87.846" rx="12.102" ry="6.999"/>
	
		<ellipse transform="matrix(0.3129 -0.9498 0.9498 0.3129 10.4376 190.119)" fill-rule="evenodd" clip-rule="evenodd" fill="#F6C5A0" cx="136.617" cy="87.846" rx="12.103" ry="7"/>
	<path fill-rule="evenodd" clip-rule="evenodd" fill="#9FBAC4" d="M97.23,164.197c0,0-29.088,6.942-29.088,8.703
		s11.068,59.019,11.068,59.019h39.491l4.526-58.767L97.23,164.197z"/>
	<polygon fill-rule="evenodd" clip-rule="evenodd" fill="#1A1A1A" points="76.278,144.405 76.278,153.849 85.333,231.919 
		69.764,231.919 52.636,197.147 68.986,186.247 49.005,176.906 67.378,148.396 	"/>
	<polygon fill-rule="evenodd" clip-rule="evenodd" fill="#1B1B1B" points="117.964,144.454 117.964,153.849 108.821,231.919 
		124.391,231.919 141.517,197.147 125.17,186.247 145.147,176.906 128.819,149.274 	"/>
	<path fill-rule="evenodd" clip-rule="evenodd" fill="#28A8E3" d="M88.158,173.851l5.048,7.821c2.608,0,5.219,0,7.829,0l5.05-7.821
		l-8.854-9.653L88.158,173.851z"/>
	<polygon fill-rule="evenodd" clip-rule="evenodd" fill="#28A8E3" points="93.206,181.672 86.02,231.919 108.224,231.919 
		101.035,181.672 	"/>
	<path fill-rule="evenodd" clip-rule="evenodd" fill="#FFFFFF" d="M76.278,138.122l-1.822,7.089l5.1,36.91l17.674-17.924
		L76.278,138.122z"/>
	<path opacity="0.2" d="M76.278,129.307v1.504c0,0,10.649,12.639,20.805,13.095c10.157,0.456,20.881-12.236,20.881-12.236v-2.311"/>
	<g>
		<path fill-rule="evenodd" clip-rule="evenodd" fill="#F6C5A0" d="M97.156,20.834c-64.125,0-39.547,87.837-35.359,94.566
			c4.618,7.421,25,23.778,35.359,23.778c10.361,0,30.739-16.357,35.36-23.778C136.706,108.671,161.282,20.834,97.156,20.834z"/>
		<path fill="#605343" d="M125.921,22.886c-21.657-17.042-55.098-6.882-65.195,7.32c-12.637,17.772-8.168,44.756-5.176,65.031
			c-0.001-0.03,0-0.058-0.001-0.088c0.034,0.204,0.075,0.412,0.131,0.63c0.042,0.165,0.403,0.632,0.473,0.76
			c0.105,0.191,0.89-0.017,1.15-0.143c0.095-0.044,0.137-0.168,0.142-0.271c0.121-1.789,0.012-5.336,0.008-5.376
			c-0.237-2.789-0.844-5.477-1.252-8.203c2.027-12.782,8.026-15.469,11.17-30.886c0.665-1.031,1.377-2.029,2.123-3.002
			c0.859-1.119,1.749-2.195,2.786-3.152c0.546-0.332,1.072-0.692,1.579-1.086c11.655-4.27,23.673,0.852,34.676,5.342
			c4.206,1.717,8.926,3.747,13.565,3.387c1.981-0.154,3.504-1.461,3.65-3.135c5.267,15.774,9.607,23.09,12.167,34.657
			c-0.351,2.009-0.729,4.016-0.903,6.078c-0.005,0.04-0.112,3.587,0.007,5.376c0.006,0.104,0.048,0.228,0.143,0.271
			c0.26,0.126,1.045,0.334,1.15,0.143c0.07-0.128,0.431-0.595,0.474-0.76c0.197-0.772,0.237-1.423,0.275-2.198
			c0.134-1.011,0.312-2.095,0.445-3.186C142.85,77.878,148.991,28.262,125.921,22.886z M93.096,39.635
			c-0.36-0.113-0.72-0.217-1.08-0.322c0.535,0.131,1.071,0.27,1.608,0.42C93.448,39.697,93.272,39.666,93.096,39.635z"/>
	</g>
	<path fill-rule="evenodd" clip-rule="evenodd" fill="#FFFFFF" d="M117.964,138.122l1.438,6.972l-4.792,37.396l-17.38-18.293
		L117.964,138.122z"/>
	<polyline opacity="0.05" points="76.278,138.122 97.23,164.197 117.964,138.122 117.964,137.501 97.23,163.46 76.278,137.501 
		76.278,138.122 	"/>
	<polygon opacity="0.1" fill-rule="evenodd" clip-rule="evenodd" points="93.206,181.672 101.035,181.672 101.072,181.928 
		93.169,181.928 	"/>
</g>
<path fill-rule="evenodd" clip-rule="evenodd" fill="#CC8D31" d="M44.48,56.992c0-29.133,23.617-52.75,52.75-52.75
	s52.75,23.617,52.75,52.75"/>
<path fill-rule="evenodd" clip-rule="evenodd" fill="#FBAE3C" d="M93.235,4.412c-5.296,0.402-10.371,1.583-15.115,3.435v30.185
	c0,2.62-1.955,4.744-4.366,4.744c-2.41,0-4.365-2.124-4.365-4.744V12.225C54.466,21.542,44.53,38.103,44.53,56.992h-0.982
	c-1.657,0-3,1.343-3,3v0.214c0,1.657,1.343,3,3,3h108.106c1.657,0,3-1.343,3-3v-0.214c0-1.657-1.343-3-3-3h-1.624
	c0-19.039-10.09-35.719-25.211-44.994v26.033c0,2.62-1.955,4.744-4.366,4.744c-2.41,0-4.365-2.124-4.365-4.744V7.707
	c-4.45-1.699-9.187-2.812-14.121-3.246"/>
<path fill-rule="evenodd" clip-rule="evenodd" fill="#FBAE3C" d="M105.198,8.333c0,2.762-2.618,5-5.847,5h-3.502
	c-3.229,0-5.847-2.238-5.847-5V5c0-2.762,2.618-5,5.847-5h3.502c3.229,0,5.847,2.238,5.847,5V8.333z"/>
</svg>
